<?xml version="1.0" encoding="iso-8859-1"?>
<!-- Uploaded to: SVG Repo, www.svgrepo.com, Generator: SVG Repo Mixer Tools -->
<!DOCTYPE svg PUBLIC "-//W3C//DTD SVG 1.1//EN" "http://www.w3.org/Graphics/SVG/1.1/DTD/svg11.dtd">
<svg fill="#000000" version="1.1" id="Capa_1" xmlns="http://www.w3.org/2000/svg" xmlns:xlink="http://www.w3.org/1999/xlink" 
	 width="800px" height="800px" viewBox="0 0 56.297 56.297"
	 xml:space="preserve">
<g>
	<g>
		<path d="M27.567,14.659c-16.38,0-26.909,12.949-27.349,13.502c-0.313,0.394-0.287,0.956,0.062,1.316
			c7.781,8.066,16.605,12.16,26.229,12.16c16.293,0,28.94-11.629,29.472-12.123c0.201-0.188,0.313-0.449,0.315-0.727
			c0.002-0.274-0.106-0.537-0.307-0.729C46.738,19.169,37.174,14.659,27.567,14.659z M26.507,39.64
			c-8.798,0-16.918-3.666-24.148-10.896c2.371-2.623,11.852-12.083,25.208-12.083c8.802,0,17.626,4.067,26.243,12.092
			C50.807,31.257,39.77,39.64,26.507,39.64z"/>
		<path d="M20.504,28.405c0,4.217,3.429,7.646,7.645,7.646c4.214,0,7.644-3.43,7.644-7.646c0-4.215-3.43-7.645-7.644-7.645
			C23.936,20.761,20.504,24.19,20.504,28.405z M28.149,22.761c3.11,0,5.644,2.532,5.644,5.645c0,3.112-2.531,5.646-5.644,5.646
			c-3.112,0-5.645-2.532-5.645-5.646C22.504,25.293,25.039,22.761,28.149,22.761z"/>
	</g>
</g>
</svg>